<?xml version="1.0" encoding="UTF-8" standalone="no"?>
<!-- Created with Inkscape (http://www.inkscape.org/) -->

<svg
   xmlns:dc="http://purl.org/dc/elements/1.1/"
   xmlns:cc="http://creativecommons.org/ns#"
   xmlns:rdf="http://www.w3.org/1999/02/22-rdf-syntax-ns#"
   xmlns:svg="http://www.w3.org/2000/svg"
   xmlns="http://www.w3.org/2000/svg"
   xmlns:sodipodi="http://sodipodi.sourceforge.net/DTD/sodipodi-0.dtd"
   xmlns:inkscape="http://www.inkscape.org/namespaces/inkscape"
   width="687.09003"
   height="681.35999"
   id="svg4200"
   version="1.1"
   inkscape:version="0.48.3.1 r9886"
   sodipodi:docname="New document 16">
  <defs
     id="defs4202" />
  <sodipodi:namedview
     id="base"
     pagecolor="#ffffff"
     bordercolor="#666666"
     borderopacity="1.0"
     inkscape:pageopacity="0.0"
     inkscape:pageshadow="2"
     inkscape:zoom="0.49497475"
     inkscape:cx="1053.9364"
     inkscape:cy="533.32839"
     inkscape:document-units="px"
     inkscape:current-layer="layer1"
     showgrid="false"
     inkscape:window-width="1366"
     inkscape:window-height="744"
     inkscape:window-x="0"
     inkscape:window-y="24"
     inkscape:window-maximized="1" />
  <metadata
     id="metadata4205">
    <rdf:RDF>
      <cc:Work
         rdf:about="">
        <dc:format>image/svg+xml</dc:format>
        <dc:type
           rdf:resource="http://purl.org/dc/dcmitype/StillImage" />
        <dc:title></dc:title>
      </cc:Work>
    </rdf:RDF>
  </metadata>
  <g
     inkscape:label="Layer 1"
     inkscape:groupmode="layer"
     id="layer1"
     transform="translate(0,-370.99491)">
    <g
       id="g4107"
       transform="matrix(0.22724012,0,0,0.22724012,280.36272,400.95135)">
      <path
         transform="matrix(1.2919785,0,0,1.2919785,2440.8831,-1203.5541)"
         d="m -560,1977 a 1136,1136 0 1 1 -2272,0 1136,1136 0 1 1 2272,0 z"
         sodipodi:ry="1136"
         sodipodi:rx="1136"
         sodipodi:cy="1977"
         sodipodi:cx="-1696"
         id="path4034"
         style="fill:#ffffff;fill-opacity:1;stroke:none"
         sodipodi:type="arc" />
      <path
         id="path4032"
         d="m 276.34375,2845.0312 c 12.94723,0 25.88134,-0.1427 38.75,-0.4687 12.86866,-0.326 25.68259,-0.8206 38.46875,-1.4687 12.78616,-0.6482 25.51902,-1.4712 38.21875,-2.4376 12.69973,-0.9663 25.35937,-2.0944 37.96875,-3.375 12.60938,-1.2805 25.1724,-2.6903 37.6875,-4.2812 12.5151,-1.5909 24.98936,-3.3527 37.40625,-5.25 12.41689,-1.8973 24.779,-3.9565 37.09375,-6.1562 12.31475,-2.1998 24.57257,-4.533 36.78125,-7.0313 12.20868,-2.4983 24.37006,-5.1446 36.46875,-7.9375 12.09869,-2.7929 24.14024,-5.729 36.125,-8.8125 11.98476,-3.0835 23.91434,-6.3172 35.78125,-9.6875 11.86691,-3.3703 23.66112,-6.8781 35.40625,-10.5312 11.74513,-3.6532 23.44307,-7.443 35.0625,-11.375 11.61943,-3.9321 23.16646,-8.0118 34.65625,-12.2188 11.48979,-4.207 22.92502,-8.5532 34.28125,-13.0312 11.35623,-4.4781 22.65626,-9.0987 33.875,-13.8438 11.21874,-4.7451 22.36017,-9.6167 33.4375,-14.625 11.07733,-5.0083 22.06802,-10.1387 33,-15.4062 10.93198,-5.2676 21.81104,-10.6647 32.59375,-16.1876 10.78271,-5.5228 21.46425,-11.1632 32.09375,-16.9374 10.6295,-5.7743 21.1839,-11.697 31.6562,-17.7188 10.4724,-6.0218 20.8762,-12.1409 31.1876,-18.4062 10.3113,-6.2654 20.5411,-12.6514 30.6874,-19.1563 10.1464,-6.5049 20.2101,-13.1344 30.1876,-19.875 9.9774,-6.7406 19.8516,-13.6214 29.6562,-20.5937 9.8046,-6.9724 19.5284,-14.0498 29.1562,-21.25 9.6279,-7.2003 19.1779,-14.5134 28.625,-21.9376 9.4472,-7.4241 18.8001,-14.9496 28.0626,-22.5937 9.2624,-7.6441 18.426,-15.3899 27.5,-23.25 9.0739,-7.8601 18.056,-15.834 26.9374,-23.9063 8.8815,-8.0722 17.6588,-16.2508 26.3438,-24.5312 8.685,-8.2804 17.2653,-16.6715 25.75,-25.1562 8.4847,-8.4848 16.8758,-17.065 25.1562,-25.75 8.2805,-8.6851 16.459,-17.4623 24.5313,-26.3438 8.0723,-8.8815 16.0461,-17.8636 23.9063,-26.9375 7.8601,-9.0739 15.6059,-18.2375 23.25,-27.5 7.644,-9.2625 15.2008,-18.6154 22.625,-28.0625 7.4241,-9.4471 14.7372,-18.9972 21.9374,-28.625 7.2003,-9.6278 14.2777,-19.3517 21.25,-29.1562 6.9724,-9.8046 13.8219,-19.6789 20.5626,-29.6563 6.7406,-9.9774 13.37,-20.0412 19.875,-30.1875 6.5049,-10.1463 12.8909,-20.3762 19.1562,-30.6875 6.2653,-10.3113 12.4157,-20.7151 18.4375,-31.1875 6.0218,-10.4724 11.9132,-21.0267 17.6875,-31.6562 5.7743,-10.6296 11.4146,-21.3423 16.9375,-32.125 5.5229,-10.7828 10.9199,-21.6306 16.1875,-32.5626 5.2676,-10.9319 10.4292,-21.9539 15.4375,-33.0312 5.0083,-11.0773 9.8799,-22.2188 14.625,-33.4375 4.7451,-11.2187 9.3345,-22.4875 13.8125,-33.8437 4.478,-11.3563 8.8243,-22.7915 13.0312,-34.2813 4.207,-11.4898 8.2868,-23.0368 12.2188,-34.6563 3.932,-11.6194 7.7219,-23.3173 11.375,-35.0624 3.6531,-11.7452 7.161,-23.5394 10.5312,-35.4063 3.3703,-11.8669 6.604,-23.7965 9.6876,-35.7813 3.0835,-11.9847 6.0196,-24.0263 8.8124,-36.125 2.7929,-12.0986 5.4393,-24.26 7.9376,-36.4687 2.4982,-12.2087 4.8627,-24.4665 7.0624,-36.7813 2.1998,-12.3147 4.2278,-24.6768 6.125,-37.0937 1.8973,-12.4169 3.6592,-24.8912 5.25,-37.4063 1.5909,-12.515 3.032,-25.0781 4.3126,-37.6874 1.2805,-12.6094 2.4086,-25.2691 3.375,-37.9688 0.9663,-12.6997 1.7581,-25.4326 2.4062,-38.2188 0.6481,-12.7861 1.1427,-25.6313 1.4688,-38.5 0.326,-12.8686 0.5,-25.7715 0.5,-38.7187 0,-12.9472 -0.174,-25.8501 -0.5,-38.7187 -0.2795,-11.0302 -0.7338,-22.0303 -1.25,-33 L 697.5,195.5 147.0625,2715.75 276.34375,2845.0312 z"
         style="opacity:0.20106997;fill:#000000;stroke:#000000;stroke-width:4.40063143px;stroke-linecap:butt;stroke-linejoin:miter;stroke-opacity:1"
         inkscape:connector-curvature="0" />
      <g
         id="g4048">
        <path
           inkscape:connector-curvature="0"
           style="fill:#4abdaf;fill-opacity:0.94117647;fill-rule:evenodd;stroke-width:37;stroke-miterlimit:10"
           d="m 136.2188,565.4375 c -31.2574,0.26615 -63.1243,2.7001 -95.375,7.5625 -210.3711,31.71765 -367.1476,152.38863 -460.75,299.59375 -56.9115,89.5001 -96.3956,198.97675 -99.0938,335.43755 -2.7616,139.6655 40.7099,247.3238 94.3125,340.1875 26.8076,46.4425 50.8829,93.7199 78.7813,138.4687 83.5731,134.0571 173.9051,261.6405 251.875,399.875 105.1163,186.3571 191.903,387.4659 241.125,629.0937 71.211,-366.5937 233.7943,-634.1317 407.0312,-896.4687 58.166,-88.0679 116.11321,-176.0904 162.34375,-272.1562 23.6803,-49.2131 50.29928,-95.289 66.84375,-150.4063 16.35401,-54.4532 27.98268,-120.1114 26.28125,-191 C 806.27978,1067.261 766.72928,961.19584 709.3125,871.40625 654.30818,785.37881 581.9151,712.39627 488.4688,657.75 395.5502,603.41721 271.6672,564.28418 136.2188,565.4375 z m 9.0937,408.25 c 128.5618,0 232.7813,104.2194 232.7813,232.7813 0,128.5618 -104.2195,232.7812 -232.7813,232.7812 -128.5618,0 -232.7813,-104.2194 -232.7813,-232.7812 0,-128.5619 104.2195,-232.7813 232.7813,-232.7813 z"
           id="svg_2" />
        <path
           inkscape:connector-curvature="0"
           id="path3057"
           d="m -525.8112,1398.3444 c -25.409,-6.8722 -72.7612,-22.123 -105.2282,-33.8897 -32.4657,-11.7679 -83.9051,-29.5318 -114.3082,-39.4746 -91.4715,-29.9157 -147.414,-73.7937 -180.751,-141.7724 -20.5477,-41.8966 -30.1508,-84.3629 -25.4668,-112.6172 6.1079,-36.8507 76.8458,-114.75003 200.8741,-221.21133 50.4388,-43.2946 52.5162,-45.9099 58.1922,-73.2535 9.5453,-45.9763 15.049,-89.75701 15.1597,-120.57731 0.16,-43.1519 13.8183,-113.5785 33.4048,-172.1694 74.494,-222.8359 265.7059,-403.4811 520.3097,-491.5546 52.9089,-18.3016 153.6844,-41.6701 158.5813,-36.7731 1.4153,1.4153 -6.3762,6.5239 -17.3122,11.3544 -129.4655,57.1805 -196.9359,96.5049 -279.8663,163.1213 -145.8374,117.1462 -242.1332,263.2383 -273.3929,414.7714 -10.9839,53.2411 -11.3556,158.0582 -0.5538,158.0582 4.1942,0 8.8524,-6.3282 10.392,-14.116 6.0587,-30.6431 40.6277,-129.4975 60.5822,-173.2414 67.1923,-147.2933 155.3667,-248.0946 303.8366,-347.3465 135.7002,-90.7158 292.7615,-151.09 418.9878,-161.0575 42.0627,-3.3216 40.0973,3.0288 -3.7967,12.2664 -14.4385,3.0386 -49.0863,12.8349 -76.996,21.771 -254.498,81.4856 -443.2817,280.4361 -491.5238,517.9985 -15.0489,74.1088 -15.4489,193.80131 -0.6645,198.36721 2.8232,0.8738 17.2986,-35.8969 32.1654,-81.70961 50.349,-155.1353 99.8279,-237.0073 208.598,-345.1584 81.7539,-81.2911 141.9742,-126.3247 228.9118,-171.1873 133.4,-68.8401 261.5351,-88.4156 373.8324,-57.1141 96.1296,26.796 185.04,92.6172 233.581,172.9226 45.8201,75.8034 88.2692,186.7285 103.7255,271.0471 8.3786,45.7044 8.701,46.3406 30.2924,59.6272 30.7021,18.8924 47.7153,43.6393 57.6322,83.8288 7.2722,29.46661 7.6857,41.16931 2.7568,78.00281 -6.5781,49.1712 -19.1915,76.1455 -58.0778,124.2042 -29.9059,36.959 -126.417,124.71013 -157.0035,142.74953 -53.8085,31.7372 -209.9025,86.8403 -412.2153,145.5174 -81.6259,23.6737 -170.7959,54.2996 -254.0869,87.2662 -161.2617,63.8288 -258.7956,98.2686 -343.9142,121.4389 -57.7996,15.7332 -76.3462,18.4481 -138.5923,20.2843 -64.1008,1.8916 -76.852,0.7753 -118.0606,-10.3735 z m 438.8758,-205.7539 c 157.8023,-24.9535 303.8353,-78.5774 413.2109,-151.7324 54.1002,-36.1848 140.2686,-130.64683 129.2378,-141.67883 -1.3254,-1.3255 -14.153,8.018 -28.5041,20.7631 -135.5365,120.37543 -356.0451,212.01183 -583.2414,242.37673 -91.6068,12.243 -223.4967,7.6451 -292.583,-10.1988 -133.1834,-34.3991 -220.1776,-105.7376 -259.086,-212.45603 -17.9571,-49.2549 -25.82,-53.2768 -25.7376,-13.1648 0.2831,141.35273 129.1086,244.93663 339.7655,273.19953 55.0785,7.3904 242.7338,3.0435 306.9379,-7.1085 z m 639.2159,-148.0502 66.5781,-22.2631 1.4104,-82.88373 1.4104,-82.8836 -24.5093,2.9216 c -39.3047,4.6853 -37.3406,1.5113 -37.3406,60.3693 0,44.1771 -1.4239,54.0546 -8.1632,56.6416 -14.8434,5.6956 -17.5029,-2.1587 -17.5029,-51.7003 0,-48.6063 -0.1231,-49.0235 -11.5489,-45.1727 -6.3528,2.1377 -21.9445,4.1388 -34.6477,4.4477 -20.4825,0.4923 -23.0583,1.8707 -22.7322,12.1113 0.1969,6.3529 0.7753,47.3522 1.2824,91.1121 0.8369,72.50753 1.7267,79.56193 10.0498,79.56193 5.0237,0 39.0943,-10.0179 75.7137,-22.2621 z M 726.9937,855.95107 c 54.7339,-9.9354 89.4272,-37.3245 113.2474,-89.4039 11.7949,-25.788 14.4422,-39.712 16.3485,-85.97881 1.5581,-37.8107 0.5169,-55.2078 -3.3192,-55.2078 -3.0767,0 -7.9933,9.2389 -10.9261,20.5317 -2.9315,11.2929 -7.8826,30.349 -11.0012,42.3483 -18.4259,70.88681 -64.1069,131.71881 -108.903,145.02141 -14.2354,4.2275 -32.9703,7.7214 -41.6332,7.7657 -19.5434,0.1231 -35.012,8.2112 -23.3057,12.2257 4.1549,1.4252 13.3297,3.5444 20.3877,4.7099 7.0581,1.1692 14.1407,2.4343 15.7394,2.8183 1.5999,0.3815 16.6132,-1.7894 33.3654,-4.8305 z"
           style="fill:#f7b733;fill-opacity:1;stroke:none" />
      </g>
    </g>
  </g>
</svg>
